<?xml version="1.0" standalone="no"?>
<!DOCTYPE svg PUBLIC "-//W3C//DTD SVG 1.1//EN" "http://www.w3.org/Graphics/SVG/1.1/DTD/svg11.dtd" >
<svg xmlns="http://www.w3.org/2000/svg">
<metadata></metadata>
<defs>
<font id="frutiger-lightregular" horiz-adv-x="1139" >
<font-face units-per-em="2048" ascent="1638" descent="-410" />
<missing-glyph horiz-adv-x="569" />
<glyph horiz-adv-x="0" />
<glyph unicode="&#xd;" horiz-adv-x="0" />
<glyph unicode=" "  horiz-adv-x="569" />
<glyph unicode="&#x09;" horiz-adv-x="569" />
<glyph unicode="&#xa0;" horiz-adv-x="569" />
<glyph unicode="!" horiz-adv-x="797" d="M315 0v172h166v-172h-166zM315 1430h166l-24 -1084h-117z" />
<glyph unicode="&#x22;" d="M367 983v447h129v-447h-129zM643 983v447h129v-447h-129z" />
<glyph unicode="#" d="M70 449v110h227l45 311h-219v111h233l64 449h125l-64 -449h267l63 449h125l-64 -449h197v-111h-211l-43 -311h197v-110h-213l-64 -449h-125l64 449h-266l-64 -449h-125l64 449h-213zM424 559h266l43 311h-266z" />
<glyph unicode="$" d="M174 1081q0 96 45 173t125.5 126t181.5 66v133h105v-125q154 0 276 -47l-22 -129q-88 50 -254 53v-543q68 -36 128.5 -74.5t108.5 -87t75.5 -109.5t27.5 -138q0 -110 -45.5 -191.5t-123 -130.5t-171.5 -69v-170h-105v159q-8 -2 -24 -2q-181 0 -324 62l15 145 q132 -84 315 -84q10 0 18 2v588q-88 48 -140 80.5t-103 80.5t-80 106.5t-29 125.5zM315 1085q0 -72 53.5 -126.5t157.5 -112.5v475q-93 -18 -152 -77t-59 -159zM631 117q92 27 145 95t53 179q0 71 -49.5 124.5t-148.5 113.5v-512z" />
<glyph unicode="%" horiz-adv-x="2048" d="M215 1061q0 110 34 197.5t107 136.5t183 49q162 0 242.5 -105t80.5 -278t-80.5 -278t-242.5 -105q-110 0 -183 49t-107 136t-34 198zM344 1061q0 -115 45 -194t150 -79q71 0 114.5 39.5t61.5 103t18 130.5q0 115 -44.5 193.5t-149.5 78.5q-106 0 -150.5 -78.5 t-44.5 -193.5zM541 -45l845 1520h119l-846 -1520h-118zM1186 369q0 173 80.5 278t242.5 105q163 0 243.5 -105t80.5 -278q0 -110 -34 -197.5t-107 -136.5t-183 -49q-109 0 -182 49t-107 136t-34 198zM1315 369q0 -115 45 -194t149 -79q105 0 150 79t45 194t-44.5 193.5 t-150.5 78.5q-105 0 -149.5 -78.5t-44.5 -193.5z" />
<glyph unicode="&#x26;" horiz-adv-x="1366" d="M102 375q0 284 338 416q-67 76 -101 121.5t-59.5 105.5t-25.5 125q0 97 55.5 168t144.5 107t185 36q89 0 165 -32.5t123.5 -99t47.5 -163.5q0 -78 -27 -137t-75 -103.5t-94 -70.5t-148 -78l377 -420q43 61 70 131.5t39.5 148.5t12.5 154h123q0 -143 -40 -276t-119 -240 l243 -264h-180l-151 160q-86 -96 -196.5 -142.5t-238.5 -46.5q-91 0 -175.5 24.5t-150.5 73.5t-104.5 126t-38.5 176zM244 381q0 -138 96.5 -216.5t234.5 -78.5q97 0 194.5 46t158.5 120l-416 459q-111 -45 -189.5 -132t-78.5 -198zM395 1135q0 -75 42.5 -140.5 t119.5 -150.5q137 65 207 124t70 169q0 100 -55.5 153t-147.5 53q-61 0 -115.5 -24t-87.5 -71t-33 -113z" />
<glyph unicode="'" horiz-adv-x="569" d="M221 983v447h129v-447h-129z" />
<glyph unicode="(" horiz-adv-x="569" d="M86 631q0 123 28.5 242.5t77 233t106.5 214t138 227.5h86q-111 -215 -166.5 -335t-98 -273t-42.5 -309q0 -118 27 -238.5t65.5 -222.5t83 -195.5t131.5 -261.5h-86q-112 176 -183.5 312t-119 290.5t-47.5 315.5z" />
<glyph unicode=")" horiz-adv-x="569" d="M47 -287q92 175 157.5 317t107.5 293.5t42 307.5t-42 307.5t-105.5 289.5t-159.5 320h86q76 -119 138.5 -228.5t109 -217.5t74.5 -228t28 -243q0 -161 -47.5 -315.5t-119 -290.5t-183.5 -312h-86z" />
<glyph unicode="*" d="M188 1112l35 119l301 -115l-14 314h119l-15 -314l297 115l39 -119l-301 -86l199 -244l-103 -77l-176 268l-172 -268l-100 77l192 244z" />
<glyph unicode="+" horiz-adv-x="1229" d="M94 449v141h449v448h141v-448h449v-141h-449v-449h-141v449h-449z" />
<glyph unicode="," horiz-adv-x="569" d="M111 -274l118 446h172l-161 -446h-129z" />
<glyph unicode="-" horiz-adv-x="682" d="M84 481v142h514v-142h-514z" />
<glyph unicode="." horiz-adv-x="569" d="M201 0v172h166v-172h-166z" />
<glyph unicode="/" horiz-adv-x="569" d="M-63 -25l555 1479h141l-555 -1479h-141z" />
<glyph unicode="0" d="M100 715q0 135 21.5 263t74.5 234.5t145.5 169t227.5 62.5q137 0 230 -63.5t144.5 -168.5t73 -229.5t21.5 -267.5q0 -181 -36 -343.5t-139.5 -274t-293.5 -111.5q-144 0 -238.5 67.5t-143.5 174.5t-68 232.5t-19 254.5zM242 715q0 -155 22.5 -286t95.5 -225.5t209 -94.5 t209 94.5t96 225.5t23 286t-23 286t-95.5 225.5t-209.5 94.5t-209.5 -94.5t-95 -225.5t-22.5 -286z" />
<glyph unicode="1" d="M252 1159l323 271h127v-1430h-141v1270l-231 -203z" />
<glyph unicode="2" d="M102 0v123l328 362q98 108 174 207t123 194t47 177q0 74 -33.5 133t-91 92t-127.5 33q-94 0 -174.5 -25t-169.5 -77l-24 129q84 42 180 69t180 27q119 0 212.5 -41t147.5 -125t54 -209q0 -99 -56 -211.5t-139 -218.5t-198 -233l-259 -283h685v-123h-859z" />
<glyph unicode="3" d="M102 43l17 135q147 -69 344 -69q94 0 177 31.5t136 99.5t53 170q0 113 -60.5 172.5t-147 78.5t-183.5 19h-131v123h37q129 0 233 18.5t178 82.5t74 186q0 75 -48 127.5t-123.5 78t-155.5 25.5q-157 0 -320 -76l-12 133q76 29 170 47.5t176 18.5q94 0 175 -20t144 -63 t99.5 -111.5t36.5 -159.5q0 -127 -81 -217.5t-216 -124.5v-5q92 -4 159.5 -49.5t102.5 -123t35 -173.5t-39 -172.5t-110 -129.5t-166 -81t-201 -28q-201 0 -353 57z" />
<glyph unicode="4" d="M47 330v139l643 961h180v-977h211v-123h-211v-330h-141v330h-682zM176 453h553v835h-4z" />
<glyph unicode="5" d="M176 37v145q69 -37 148 -55t157 -18q154 0 266.5 83.5t112.5 239.5q0 166 -88.5 245t-269.5 79q-153 0 -309 -45l14 719h731v-123h-592l-10 -459q91 31 217 31q138 0 238.5 -49.5t155 -145t54.5 -223.5q0 -154 -65.5 -261t-183 -160.5t-271.5 -53.5q-173 0 -305 51z" />
<glyph unicode="6" d="M113 664q0 171 33.5 309.5t110.5 246t201.5 166t299.5 58.5q97 0 229 -33l-12 -135q-44 20 -107.5 32.5t-128.5 12.5q-134 0 -228 -50t-150.5 -134.5t-81.5 -189t-25 -220.5h4q54 88 143 132t193 44q108 0 208 -40.5t168 -140.5t68 -265q0 -213 -125 -342t-342 -129 q-134 0 -225 56t-142 151.5t-71 214.5t-20 256zM268 463q0 -67 18.5 -129.5t57.5 -114t96.5 -81t134.5 -29.5q78 0 137.5 24.5t100.5 70t62.5 107.5t21.5 135q0 159 -77.5 246.5t-225.5 87.5q-152 0 -239 -87t-87 -230z" />
<glyph unicode="7" d="M119 1307v123h872v-123l-553 -1307h-155l569 1307h-733z" />
<glyph unicode="8" d="M94 367q0 104 42 176t114 118t174 82q-285 135 -285 367q0 86 41.5 151.5t105 104.5t139.5 58.5t144 19.5q118 0 214.5 -36.5t155 -111t58.5 -186.5q0 -207 -292 -367q80 -28 140 -58.5t104.5 -72.5t69.5 -102t25 -143q0 -133 -68 -219t-176 -124t-231 -38 q-119 0 -228.5 42t-178 128t-68.5 211zM236 367q0 -75 48 -134.5t125.5 -91.5t159.5 -32q89 0 165 27.5t122.5 88t46.5 154.5q0 63 -31.5 112t-78.5 82t-102.5 59.5t-121.5 57.5q-74 -29 -131.5 -55.5t-102.5 -61t-72 -86t-27 -120.5zM281 1098q0 -107 76 -171t212 -132 q80 39 141.5 79.5t103.5 97.5t42 126q0 106 -88 164.5t-199 58.5q-78 0 -143.5 -25.5t-105 -75.5t-39.5 -122z" />
<glyph unicode="9" d="M100 973q0 211 125 341t342 130q259 0 359 -189t100 -489q0 -171 -33.5 -310.5t-109 -244.5t-201.5 -165t-301 -60q-96 0 -229 32l12 136q49 -21 114 -33t121 -12q174 0 283.5 84t156 217t46.5 292h-4q-53 -87 -142.5 -131.5t-193.5 -44.5q-176 0 -310.5 103.5 t-134.5 343.5zM242 983q0 -107 35 -181t102.5 -113.5t165.5 -39.5q153 0 239 87t86 231q0 90 -33.5 171.5t-104.5 132t-169 50.5q-101 0 -174 -43.5t-110 -120t-37 -174.5z" />
<glyph unicode=":" horiz-adv-x="569" d="M201 0v172h166v-172h-166zM201 872v172h166v-172h-166z" />
<glyph unicode=";" horiz-adv-x="569" d="M111 -274l118 446h172l-161 -446h-129zM201 872v172h166v-172h-166z" />
<glyph unicode="&#x3c;" horiz-adv-x="1229" d="M94 455v127l1039 471v-135l-881 -400l881 -399v-135z" />
<glyph unicode="=" horiz-adv-x="1229" d="M94 242v141h1039v-141h-1039zM94 653v142h1039v-142h-1039z" />
<glyph unicode="&#x3e;" horiz-adv-x="1229" d="M96 -16v135l883 399l-883 400v135l1039 -471v-127z" />
<glyph unicode="?" horiz-adv-x="1024" d="M176 1403q169 51 299 51q110 0 199 -40t141.5 -122.5t52.5 -204.5q0 -112 -44 -189t-132 -171.5t-131 -167.5t-43 -182v-31h-129v27q0 125 43 204.5t127.5 171t126 161t41.5 177.5q0 74 -33.5 129.5t-92 85t-132.5 29.5q-75 0 -141 -15t-146 -42zM373 0v172h166v-172 h-166z" />
<glyph unicode="@" horiz-adv-x="1638" d="M82 715q0 139 47 272t140 238.5t234 167t318 61.5q183 0 351 -72t272 -213.5t104 -332.5q0 -124 -45 -228.5t-117.5 -179.5t-153 -114.5t-147.5 -39.5q-137 0 -161 125h-4q-56 -62 -108.5 -93.5t-143.5 -31.5q-79 0 -142 41.5t-99 113t-36 153.5q0 134 60.5 263.5 t169 210.5t243.5 81q74 0 133 -39t93 -119l43 123h129l-175 -557q-20 -58 -20 -101q0 -47 45 -47q75 0 145.5 61t113 162t42.5 216t-47.5 208t-129.5 157t-189.5 97t-225.5 33q-168 0 -307 -79.5t-218 -220t-79 -314.5q0 -175 79 -317t218 -222t307 -80q169 0 311.5 61.5 t229.5 166.5h125q-63 -109 -163 -188t-228 -121t-275 -42q-178 0 -317 61.5t-233.5 168.5t-141.5 239.5t-47 270.5zM545 594q3 -94 42 -145.5t105 -51.5q70 0 133.5 41.5t108.5 108.5t69.5 141t24.5 141q0 99 -48.5 142t-115.5 43t-142 -55t-126 -153t-51 -212z" />
<glyph unicode="A" horiz-adv-x="1366" d="M27 0l585 1430h160l567 -1430h-147l-154 383h-721l-153 -383h-137zM371 506h620l-309 788z" />
<glyph unicode="B" d="M164 0v1430h340q201 0 326.5 -81t125.5 -272q0 -138 -64.5 -219t-195.5 -106v-4q139 -24 221 -112.5t82 -227.5q0 -147 -72.5 -238.5t-197 -130.5t-280.5 -39h-285zM305 123h148q171 0 288 62t117 216q0 171 -115.5 226t-312.5 55h-125v-559zM309 805h158q89 0 166 21.5 t129.5 80.5t52.5 164q0 138 -93 187t-218 49h-195v-502z" />
<glyph unicode="C" horiz-adv-x="1366" d="M117 715q0 160 50.5 297.5t144 235.5t228.5 152t298 54q85 0 182 -13t145 -40l-8 -131q-62 33 -145.5 47t-173.5 14q-181 0 -312 -78.5t-199.5 -219.5t-68.5 -318q0 -182 67 -321.5t198 -217.5t315 -78q215 0 319 62l8 -123q-54 -32 -150.5 -47t-176.5 -15 q-164 0 -300 52.5t-229 151t-142.5 235.5t-49.5 301z" />
<glyph unicode="D" horiz-adv-x="1366" d="M164 0v1430h354q190 0 325.5 -51.5t221.5 -145.5t127 -225.5t41 -290.5q0 -191 -59.5 -327t-169.5 -223t-260 -127t-330 -40h-250zM305 123h117q670 0 670 602q0 160 -44.5 273t-121 179.5t-183 98t-231.5 31.5h-207v-1184z" />
<glyph unicode="E" horiz-adv-x="1024" d="M176 0v1430h701v-123h-560v-510h531v-123h-531v-551h584v-123h-725z" />
<glyph unicode="F" horiz-adv-x="909" d="M158 0v1430h680v-123h-539v-510h514v-123h-514v-674h-141z" />
<glyph unicode="G" horiz-adv-x="1479" d="M131 715q0 160 50.5 296.5t144.5 235.5t228.5 153t297.5 54q101 0 209 -17t174 -51l-16 -131q-76 43 -165.5 59.5t-201.5 16.5q-181 0 -312 -78.5t-199.5 -219.5t-68.5 -318q0 -182 67 -321.5t198 -217.5t315 -78q82 0 169.5 12.5t133.5 39.5v501h-332v123h473v-711 q-104 -45 -212.5 -66.5t-231.5 -21.5q-164 0 -300 52.5t-229 151t-142.5 235.5t-49.5 301z" />
<glyph unicode="H" horiz-adv-x="1366" d="M180 0v1430h142v-633h722v633h142v-1430h-142v674h-722v-674h-142z" />
<glyph unicode="I" horiz-adv-x="455" d="M158 0v1430h141v-1430h-141z" />
<glyph unicode="J" horiz-adv-x="682" d="M29 0v125q53 -27 133 -27q74 0 121 35.5t67.5 96.5t20.5 135v1065h141v-1061q0 -177 -83 -285.5t-253 -108.5q-80 0 -147 25z" />
<glyph unicode="K" horiz-adv-x="1251" d="M195 0v1430h141v-642l643 642h184l-692 -674l752 -756h-195l-692 715v-715h-141z" />
<glyph unicode="L" horiz-adv-x="909" d="M164 0v1430h141v-1307h574v-123h-715z" />
<glyph unicode="M" horiz-adv-x="1821" d="M176 0v1430h219l523 -1258l524 1258h203v-1430h-142v1288h-4l-520 -1288h-121l-536 1288h-5v-1288h-141z" />
<glyph unicode="N" horiz-adv-x="1366" d="M158 0v1430h178l727 -1258h4v1258h141v-1430h-190l-715 1233h-4v-1233h-141z" />
<glyph unicode="O" horiz-adv-x="1479" d="M111 715q0 200 69.5 368.5t211.5 269.5t347 101t347.5 -101t212 -269.5t69.5 -368.5q-2 -165 -42.5 -301t-119.5 -234t-197 -151.5t-270 -53.5q-151 0 -269 53.5t-197 152t-119.5 234t-42.5 300.5zM252 715q0 -156 54 -299t164 -230.5t269 -87.5t270 88t164.5 230.5 t53.5 298.5t-53.5 298t-164.5 230t-270 88t-269 -87.5t-164 -229.5t-54 -299z" />
<glyph unicode="P" horiz-adv-x="1024" d="M176 0v1430h352q135 0 235 -45.5t154 -136.5t54 -224q0 -129 -59.5 -220.5t-162.5 -138.5t-235 -47h-197v-618h-141zM317 741h99q90 0 160.5 8.5t128.5 37.5t91 86t33 151q0 136 -73.5 209.5t-208.5 73.5h-230v-566z" />
<glyph unicode="Q" horiz-adv-x="1479" d="M111 715q0 200 69.5 368.5t211.5 269.5t347 101t347.5 -101t212 -269.5t69.5 -368.5q-2 -129 -25.5 -237t-71 -198t-115.5 -154t-159 -101l301 -291h-188l-254 252q-45 -11 -117 -11q-151 0 -269 53.5t-197 152t-119.5 234t-42.5 300.5zM252 715q0 -156 54 -299 t164 -230.5t269 -87.5t270 88t164.5 230.5t53.5 298.5t-53.5 298t-164.5 230t-270 88t-269 -87.5t-164 -229.5t-54 -299z" />
<glyph unicode="R" d="M180 0v1430h369q96 0 174 -21.5t133 -66.5t84 -114.5t29 -168.5q0 -89 -42 -160.5t-114 -114.5t-162 -55v-4q78 -9 111 -46t74 -126l243 -553h-155l-207 483q-40 90 -77.5 130t-81 50.5t-120.5 10.5h-116v-674h-142zM322 797h149q145 0 250.5 62.5t105.5 199.5 q0 111 -46.5 164.5t-122.5 68.5t-191 15h-145v-510z" />
<glyph unicode="S" horiz-adv-x="1024" d="M119 1081q0 83 35 153.5t97 119.5t144 74.5t176 25.5q157 0 281 -47l-23 -129q-44 25 -113 39t-147 14t-149 -24t-115.5 -80t-44.5 -142q0 -93 71.5 -148t240.5 -146t256 -181.5t87 -230.5q0 -138 -67.5 -228t-176 -133t-225.5 -43q-180 0 -323 62l14 145 q43 -28 91 -46.5t102 -28t123 -9.5q90 0 163 31.5t115.5 98t42.5 163.5q0 94 -76 153.5t-243.5 153.5t-251.5 175.5t-84 207.5z" />
<glyph unicode="T" horiz-adv-x="1024" d="M20 1307v123h986v-123h-422v-1307h-142v1307h-422z" />
<glyph unicode="U" horiz-adv-x="1366" d="M166 500v930h141v-930q0 -118 43 -209t128.5 -142t205.5 -51t205.5 51t128.5 142t43 209v930h141v-930q0 -195 -80 -312.5t-197.5 -165t-240.5 -47.5t-240.5 47.5t-197.5 165t-80 312.5z" />
<glyph unicode="V" horiz-adv-x="1251" d="M12 1430h150l461 -1289l477 1289h139l-543 -1430h-151z" />
<glyph unicode="W" horiz-adv-x="1933" d="M18 1430h146l352 -1270h4l367 1270h170l360 -1270h4l359 1270h135l-414 -1430h-168l-362 1270h-4l-369 -1270h-170z" />
<glyph unicode="X" horiz-adv-x="1251" d="M14 0l533 752l-479 678h165l402 -578l405 578h158l-481 -678l520 -752h-172l-436 651l-453 -651h-162z" />
<glyph unicode="Y" horiz-adv-x="1251" d="M25 1430h163l437 -699l448 699h154l-531 -824v-606h-141v606z" />
<glyph unicode="Z" horiz-adv-x="1024" d="M43 0v123l745 1184h-727v123h877v-123l-741 -1184h766v-123h-920z" />
<glyph unicode="[" horiz-adv-x="569" d="M141 -287v1835h332v-98h-203v-1638h203v-99h-332z" />
<glyph unicode="\" horiz-adv-x="569" d="M-63 1454h141l555 -1479h-141z" />
<glyph unicode="]" horiz-adv-x="569" d="M96 -188h203v1638h-203v98h332v-1835h-332v99z" />
<glyph unicode="^" horiz-adv-x="1229" d="M102 543l447 887h131l446 -887h-145l-367 745l-366 -745h-146z" />
<glyph unicode="_" horiz-adv-x="1024" d="M0 -154h1024v-102h-1024v102z" />
<glyph unicode="`" horiz-adv-x="455" d="M-8 1466h162l190 -295h-94z" />
<glyph unicode="a" horiz-adv-x="1024" d="M82 270q0 126 59 201t153 110.5t197 45.5t234 10h25v53q0 137 -54.5 202.5t-183.5 65.5q-174 0 -307 -86v125q60 30 149 51t158 21q129 0 210 -40.5t119 -125.5t38 -223v-461q0 -79 2.5 -130.5t7.5 -88.5h-127v168h-4q-27 -60 -81.5 -104.5t-119 -66.5t-131.5 -22 q-136 0 -212.5 50t-104 116.5t-27.5 128.5zM223 274q0 -96 60.5 -142t156.5 -46q139 0 207 64.5t85.5 145t17.5 167.5v63h-37q-220 0 -355 -49t-135 -203z" />
<glyph unicode="b" d="M150 0v1536h129v-668h4q12 34 51.5 81t109.5 83.5t164 36.5q113 0 195.5 -39.5t134 -112t76 -173.5t24.5 -222q0 -155 -48.5 -280t-145 -196t-236.5 -71q-112 0 -192.5 46t-132.5 145h-4v-166h-129zM279 522q0 -103 31 -204t101 -166.5t177 -65.5q114 0 183.5 63 t97.5 161.5t28 211.5t-28 211.5t-97.5 161.5t-183.5 63q-85 0 -145 -39t-95 -101.5t-52 -142t-17 -153.5z" />
<glyph unicode="c" horiz-adv-x="909" d="M84 522q0 119 37.5 220.5t105.5 174.5t163.5 112.5t209.5 39.5q126 0 252 -41l-10 -123q-120 53 -224 53q-185 0 -289 -121t-104 -315q0 -88 25.5 -166.5t77 -141t122.5 -95.5t154 -33q110 0 236 47l12 -121q-109 -37 -268 -37q-122 0 -216 43t-157.5 120t-95 174.5 t-31.5 209.5z" />
<glyph unicode="d" d="M100 522q0 121 25.5 222t76.5 173.5t133 112t195 39.5q94 0 163.5 -36t110 -83t52.5 -82h4v668h129v-1536h-129v166h-4q-52 -99 -132.5 -145t-193.5 -46q-139 0 -236 71t-145.5 195t-48.5 281zM242 522q0 -181 70.5 -308.5t238.5 -127.5q108 0 177 65.5t100.5 166.5 t31.5 204q0 104 -31.5 204t-100.5 166t-177 66q-114 0 -183.5 -63t-97.5 -161.5t-28 -211.5z" />
<glyph unicode="e" horiz-adv-x="1024" d="M84 522q0 119 30.5 218t90 174.5t140.5 115t179 39.5q143 0 235.5 -69t136.5 -186t44 -263v-66h-715q0 -112 40 -203t118 -143.5t186 -52.5q68 0 157 24t136 54v-131q-69 -28 -148.5 -43t-154.5 -15q-246 0 -360.5 147.5t-114.5 399.5zM225 596h574q0 97 -27.5 179 t-88 132.5t-151.5 50.5q-90 0 -160 -52.5t-108.5 -137.5t-38.5 -172z" />
<glyph unicode="f" horiz-adv-x="682" d="M39 934v110h211v76q0 140 15 230t75.5 150.5t185.5 60.5q85 0 121 -21l-8 -113q-41 23 -102 23q-97 0 -127.5 -67t-30.5 -179v-69v-91h235v-110h-235v-934h-129v934h-211z" />
<glyph unicode="g" d="M100 522q0 121 25.5 222t76.5 173.5t133 112t195 39.5q118 0 188.5 -28t137.5 -115h4v118h129v-958q0 -236 -118 -382t-371 -146q-130 0 -316 55l11 129q143 -74 307 -74q121 0 194 40.5t109 113.5t46.5 164t10.5 219h-4q-50 -108 -130.5 -156.5t-186.5 -48.5 q-120 0 -204 46t-137.5 124t-76.5 169.5t-23 182.5zM242 522q0 -109 31 -202t99 -151t171 -58q161 0 239 123t78 288q0 436 -309 436q-114 0 -183.5 -63t-97.5 -161.5t-28 -211.5z" />
<glyph unicode="h" d="M162 0v1536h129v-668h4q27 58 75 104t111.5 71.5t139.5 25.5q198 0 277 -116t79 -328v-625h-129v623q0 158 -50.5 246.5t-197.5 88.5q-108 0 -177 -59t-100.5 -150.5t-31.5 -189.5v-559h-129z" />
<glyph unicode="i" horiz-adv-x="455" d="M162 0v1044h129v-1044h-129zM162 1208v154h129v-154h-129z" />
<glyph unicode="j" horiz-adv-x="455" d="M-57 -319q33 -13 77 -13q90 0 116 50t26 151v1175h129v-1191q0 -140 -52 -217.5t-184 -77.5q-62 0 -112 10v113zM162 1208v154h129v-154h-129z" />
<glyph unicode="k" horiz-adv-x="1024" d="M162 0v1536h129v-920l467 428h166l-510 -462l571 -582h-178l-516 537v-537h-129z" />
<glyph unicode="l" horiz-adv-x="455" d="M162 0v1536h129v-1536h-129z" />
<glyph unicode="m" horiz-adv-x="1706" d="M154 1044h125v-176l4 -2q38 66 66 102t92.5 68.5t166.5 32.5q57 0 113.5 -19.5t102.5 -68.5t61 -133h4q38 97 126 159t208 62q155 0 242 -96.5t87 -253.5v-719h-129v694q0 120 -52.5 192t-168.5 72q-73 0 -137 -41.5t-103.5 -127.5t-39.5 -211v-578h-129v694 q0 121 -52 192.5t-170 71.5q-73 0 -137 -41.5t-103.5 -127.5t-39.5 -211v-578h-129v799q0 162 -8 245z" />
<glyph unicode="n" d="M154 1044h125v-186h4q44 93 118 152t220 59q184 0 270 -108t86 -293v-668h-129v635q0 155 -60 239t-188 84q-109 0 -179 -55.5t-100 -141.5t-30 -183v-578h-129v799q0 162 -8 245z" />
<glyph unicode="o" d="M82 522q0 150 53 273.5t163 198.5t271 75t271.5 -75.5t163.5 -200t53 -271.5q0 -112 -29 -208.5t-90.5 -174t-154.5 -121t-214 -43.5t-213.5 44t-153.5 120.5t-90.5 174t-29.5 208.5zM223 522q0 -123 40 -221.5t118 -156.5t188 -58q109 0 188 58t118.5 156.5t39.5 221.5 q0 122 -40 221.5t-118.5 157t-187.5 57.5q-110 0 -187.5 -57.5t-118 -156.5t-40.5 -222z" />
<glyph unicode="p" d="M150 -430v1474h129l-9 -190h4q32 56 64.5 97.5t100.5 79.5t169 38q113 0 195.5 -39.5t134 -112t76 -173.5t24.5 -222q0 -155 -48.5 -280t-145 -196t-236.5 -71q-120 0 -198 49.5t-127 153.5h-4v-608h-129zM279 522q0 -103 31 -204t101 -166.5t177 -65.5q114 0 183.5 63 t97.5 161.5t28 211.5t-28 211.5t-97.5 161.5t-183.5 63q-107 0 -177 -65.5t-101 -166t-31 -204.5z" />
<glyph unicode="q" d="M100 522q0 121 25.5 222t76.5 173.5t133 112t195 39.5q76 0 136 -23t97 -56t56 -59.5t37 -56.5h4v170h129v-1474h-129v608h-4q-47 -102 -125.5 -152.5t-200.5 -50.5q-139 0 -236 71t-145.5 195t-48.5 281zM242 522q0 -181 70.5 -308.5t238.5 -127.5q108 0 177 65.5 t100.5 166.5t31.5 204q0 104 -31.5 204t-100.5 166t-177 66q-114 0 -183.5 -63t-97.5 -161.5t-28 -211.5z" />
<glyph unicode="r" horiz-adv-x="682" d="M154 1044h129v-200h4q26 64 63 113.5t90 80.5t115 31q46 0 90 -12v-135q-40 12 -94 12q-97 0 -155 -62t-81.5 -155.5t-23.5 -200.5v-516h-129v811q0 97 -1 139.5t-7 93.5z" />
<glyph unicode="s" horiz-adv-x="797" d="M70 25l12 127q132 -66 272 -66q64 0 116.5 22.5t84 64t31.5 99.5q0 82 -61 128.5t-186 106t-190 118t-65 159.5q0 97 47.5 161.5t125 94t167.5 29.5q49 0 125.5 -12.5t132.5 -34.5l-12 -113q-49 23 -111 36t-121 13q-109 0 -167 -39t-58 -135q0 -62 41 -88.5t187 -96 t216 -141t70 -186.5q0 -151 -112 -224t-253 -73q-168 0 -292 50z" />
<glyph unicode="t" horiz-adv-x="682" d="M41 934v110h205v252l129 45v-297h237v-110h-237v-676q0 -77 33 -124.5t106 -47.5q57 0 119 25l8 -107q-75 -29 -158 -29q-82 0 -131 27t-72 75t-28.5 106t-5.5 141v610h-205z" />
<glyph unicode="u" d="M162 377v667h129v-634q0 -155 60 -239.5t188 -84.5q109 0 179 56t100 142t30 183v577h129v-798q0 -162 8 -246h-125v186h-4q-41 -91 -117 -151t-221 -60q-125 0 -204 51.5t-115.5 141.5t-36.5 209z" />
<glyph unicode="v" horiz-adv-x="909" d="M18 1044h142l289 -903h4l303 903h135l-367 -1044h-151z" />
<glyph unicode="w" horiz-adv-x="1593" d="M14 1044h142l274 -903h4l291 903h156l276 -903h4l289 903h129l-344 -1044h-156l-284 903h-4l-285 -903h-156z" />
<glyph unicode="x" horiz-adv-x="909" d="M16 0l367 553l-332 491h160l248 -389l252 389h147l-323 -491l358 -553h-160l-274 451l-293 -451h-150z" />
<glyph unicode="y" horiz-adv-x="909" d="M18 1044h142l293 -872l-2 2h4l301 870h135l-418 -1200q-43 -128 -106.5 -207t-161.5 -79q-70 0 -139 16l12 111q45 -17 96 -17q77 0 115 54.5t73 173.5l27 92z" />
<glyph unicode="z" horiz-adv-x="909" d="M66 0v109l628 825h-604v110h754v-110l-629 -823h629v-111h-778z" />
<glyph unicode="{" horiz-adv-x="569" d="M78 582v98q52 0 88.5 36.5t54 100.5t17.5 139v344q0 76 27.5 133t75 86t105.5 29h113v-98h-102q-45 0 -67.5 -54t-22.5 -136v-338q0 -130 -59 -202.5t-113 -86.5v-4q32 -8 72 -40.5t70 -96t30 -156.5v-332q0 -83 22.5 -137.5t67.5 -54.5h102v-99h-115q-88 0 -147 68 t-59 182v348q0 120 -40.5 195.5t-119.5 75.5z" />
<glyph unicode="|" horiz-adv-x="455" d="M158 -25v1561h141v-1561h-141z" />
<glyph unicode="}" horiz-adv-x="569" d="M10 -188h103q46 0 68 54t22 136v338q0 131 59 203t113 86v4q-55 14 -113.5 86.5t-58.5 206.5v331q0 85 -22 139t-68 54h-103v98h115q58 0 105 -29.5t74.5 -86.5t27.5 -134v-348q0 -118 41 -194t119 -76v-98q-79 0 -119.5 -77.5t-40.5 -199.5v-344q0 -76 -27.5 -133 t-75 -86t-106.5 -29h-113v99z" />
<glyph unicode="~" horiz-adv-x="1229" d="M141 477q98 187 256 187q82 0 234 -74q97 -47 132 -61.5t71 -14.5q39 0 69.5 20t57 53.5t53.5 76.5l73 -105q-26 -51 -60 -91.5t-83 -67.5t-113 -27q-48 0 -97.5 18t-135.5 58q-95 44 -130.5 58.5t-72.5 14.5q-54 0 -93 -37.5t-87 -111.5z" />
<glyph horiz-adv-x="1024" d="M43 0v123l745 1184h-727v123h877v-123l-741 -1184h766v-123h-920zM240 1784h88l170 -180l170 180h88l-178 -256h-158z" />
<glyph horiz-adv-x="455" d="M162 -281q0 91 74.5 157.5t173.5 123.5h57q-100 -78 -138 -137.5t-38 -116.5q0 -102 106 -102q80 0 123 75l29 -16q-20 -50 -73 -91.5t-134 -41.5q-70 0 -125 41t-55 108z" />
<glyph horiz-adv-x="455" d="M-55 1272h88l170 -180l170 180h88l-178 -256h-158z" />
<glyph horiz-adv-x="909" d="M16 391v141l148 105v793h141v-693l359 252v-139l-359 -254v-473h574v-123h-715v496z" />
<glyph horiz-adv-x="739" d="M47 1122q0 69 18.5 127.5t59 105.5t102.5 73t144 26q161 -1 241 -93.5t80 -238.5q0 -86 -34.5 -161t-106 -120t-180.5 -46q-162 0 -243 92.5t-81 234.5zM152 1122q0 -69 26.5 -124t76 -86t116.5 -31t116 31t75 86t26 124q0 50 -14.5 95t-42 78t-69 53t-91.5 20 q-100 0 -159.5 -71.5t-59.5 -174.5z" />
<glyph horiz-adv-x="342" d="M-311 -45l846 1520h116l-846 -1520h-116z" />
<glyph horiz-adv-x="455" d="M-25 1432h62q17 -60 69.5 -87.5t120.5 -27.5q70 0 122 27.5t69 87.5h61q-14 -106 -80 -172t-172 -66q-70 0 -123.5 30.5t-86.5 84.5t-42 123z" />
<glyph horiz-adv-x="909" d="M66 0v109l628 825h-604v110h754v-110l-629 -823h629v-111h-778zM225 1409h88l170 -180l170 180h88l-178 -256h-157z" />
<glyph unicode="&#xa0;" d="M39 934v110h211v76q0 140 15 230t75.5 150.5t185.5 60.5q85 0 121 -21l-8 -113q-41 23 -102 23q-97 0 -127.5 -67t-30.5 -179v-69v-91h235v-110h-235v-934h-129v934h-211zM825 0v1536h129v-1536h-129z" />
<glyph unicode="&#xa1;" horiz-adv-x="797" d="M315 -385l25 1083h117l24 -1083h-166zM315 872v172h166v-172h-166z" />
<glyph unicode="&#xa2;" d="M203 522q0 119 37.5 220.5t105.5 174.5t163.5 112.5t209.5 39.5q47 0 69 -4l46 139h96l-51 -151q38 -8 92 -25l-10 -123q-49 22 -117 39l-275 -823q72 -35 154 -35q110 0 235 47l13 -121q-109 -37 -269 -37q-94 0 -172 29l-63 -190h-96l75 225q-78 44 -133.5 118.5 t-82.5 168t-27 196.5zM344 522q0 -109 38 -201.5t107 -150.5l263 786q-7 2 -15 2q-185 0 -289 -120t-104 -316z" />
<glyph unicode="&#xa3;" d="M137 0v123h211v588h-186v110h186v101q0 230 99.5 376t349.5 146q145 0 229 -43l-20 -127q-79 47 -209 47q-128 0 -196.5 -59.5t-90 -147.5t-21.5 -205v-88h340v-110h-340v-588h504v-123h-856z" />
<glyph unicode="&#xa4;" d="M55 289l117 112q-111 139 -111 314q0 86 27 166.5t84 142.5l-117 113l88 92l117 -115q61 51 145 80t164 29q178 0 312 -109l110 115l92 -92l-110 -113q52 -61 78 -142t26 -167q0 -185 -104 -314l110 -112l-92 -88l-110 114q-125 -108 -312 -108q-86 0 -166.5 27.5 t-142.5 80.5l-117 -114zM203 715q0 -107 46.5 -195.5t131 -139t188.5 -50.5q105 0 189 52.5t131 142t47 190.5q0 100 -47.5 189.5t-131.5 142.5t-188 53q-103 -4 -186.5 -58t-131.5 -141t-48 -186z" />
<glyph unicode="&#xa5;" d="M39 1430h156l374 -691l385 691h146l-398 -709h234v-98h-289l-6 -13v-153h295v-99h-295v-358h-141v358h-295v99h295v153l-6 13h-289v98h233z" />
<glyph unicode="&#xa6;" horiz-adv-x="455" d="M158 -25v545h141v-545h-141zM158 991v545h141v-545h-141z" />
<glyph unicode="&#xa7;" d="M182 635q0 74 44 136.5t118 127.5l18 16l-14 9q-153 89 -153 223q0 104 55.5 173.5t140 101.5t174.5 32q162 0 297 -45l-14 -119q-33 19 -105.5 36t-138.5 17q-58 0 -119.5 -18.5t-105 -57.5t-43.5 -98q0 -88 69.5 -134t228 -112.5t237.5 -132.5t79 -186 q0 -85 -36.5 -140.5t-116.5 -137.5q159 -89 159 -242q0 -94 -42.5 -157.5t-109.5 -102t-135 -54.5t-128 -16q-179 0 -346 58l14 120q148 -67 332 -67q104 0 189 56t85 159q0 84 -73.5 127.5t-234 105t-243 131t-82.5 191.5zM324 643q0 -52 35.5 -94.5t97.5 -69.5l239 -104 l43 43q78 78 78 162q0 78 -44 120t-132 82l-178 84l-14 -8q-21 -11 -51 -43t-52 -76.5t-22 -95.5z" />
<glyph unicode="&#xa8;" horiz-adv-x="455" d="M-25 1237v172h154v-172h-154zM326 1237v172h153v-172h-153z" />
<glyph unicode="&#xa9;" horiz-adv-x="1638" d="M80 715q0 149 57.5 284.5t159 237t238.5 159.5t284 58q148 0 285 -58t238.5 -159.5t159 -237t57.5 -284.5q0 -148 -58 -285t-159 -238t-238 -159t-285 -58q-147 0 -284 58t-238 159t-159 238t-58 285zM221 715q0 -130 44.5 -245t126.5 -201.5t192.5 -134.5t236.5 -48 t236 48t191.5 135t125 201.5t43.5 244.5t-44.5 245.5t-125 201.5t-190.5 133.5t-236 47.5t-236.5 -47.5t-191.5 -133t-126.5 -201.5t-45.5 -246zM403 715q0 133 53 239t153 165t231 59q93 0 172.5 -36t131 -105.5t64.5 -168.5h-123q-18 91 -83 145t-160 54 q-141 0 -219 -96.5t-78 -253.5q0 -95 37 -176.5t106 -128.5t158 -47q96 0 160 56.5t79 151.5h125q-21 -99 -72.5 -170t-128 -110t-163.5 -39q-131 0 -232 60.5t-156 165.5t-55 235z" />
<glyph unicode="&#xaa;" horiz-adv-x="666" d="M49 981q0 99 63 150t151 64t208 13h16v31q0 54 -27.5 91.5t-117.5 37.5q-111 0 -201 -49v94q112 41 213 41q238 0 238 -233v-277q0 -88 6 -133h-102v98h-4q-22 -52 -81 -83t-126 -31q-236 0 -236 186zM154 991q0 -110 141 -110q124 0 158 63t34 141v37h-24 q-131 0 -220 -29t-89 -102z" />
<glyph unicode="&#xab;" d="M186 551l287 420h121l-272 -420l272 -420h-121zM545 551l286 420h121l-272 -420l272 -420h-121z" />
<glyph unicode="&#xac;" horiz-adv-x="1229" d="M94 653v142h1039v-562h-142v420h-897z" />
<glyph unicode="&#xad;" horiz-adv-x="1229" d="M94 449v141h1039v-141h-1039z" />
<glyph unicode="&#xae;" horiz-adv-x="1638" d="M80 715q0 149 57.5 284.5t159 237t238.5 159.5t284 58q148 0 285 -58t238.5 -159.5t159 -237t57.5 -284.5q0 -148 -58 -285t-159 -238t-238 -159t-285 -58q-147 0 -284 58t-238 159t-159 238t-58 285zM221 715q0 -130 44.5 -245t126.5 -201.5t192.5 -134.5t236.5 -48 t236 48t191.5 135t125 201.5t43.5 244.5t-44.5 245.5t-125 201.5t-190.5 133.5t-236 47.5t-236.5 -47.5t-191.5 -133t-126.5 -201.5t-45.5 -246zM537 283v866h331q297 0 297 -244q0 -105 -61.5 -172t-161.5 -67l246 -383h-150l-241 383h-119v-383h-141zM678 776h168 q89 0 133.5 28t44.5 107q0 68 -50 97.5t-128 29.5h-168v-262z" />
<glyph unicode="&#xaf;" horiz-adv-x="455" d="M-23 1257v111h500v-111h-500z" />
<glyph unicode="&#xb0;" horiz-adv-x="455" d="M31 1327q0 55 25.5 99t70 70t100.5 26q42 0 78.5 -15t62.5 -41t41 -61.5t15 -77.5q0 -83 -56.5 -138.5t-140.5 -55.5t-140 56t-56 138zM104 1327q0 -50 37 -85.5t86 -35.5q52 0 87.5 34.5t35.5 86.5q0 51 -35 86t-88 35q-49 0 -86 -36t-37 -85z" />
<glyph unicode="&#xb1;" horiz-adv-x="1229" d="M94 0v141h1039v-141h-1039zM94 551v141h449v346h141v-346h449v-141h-449v-346h-141v346h-449z" />
<glyph unicode="&#xb2;" horiz-adv-x="739" d="M92 582v84l217 194q96 92 155.5 178.5t59.5 161.5q0 67 -45 106.5t-114 39.5q-110 0 -224 -62l-16 102q53 26 118 42t122 16q125 0 200.5 -58t75.5 -180q0 -111 -64 -198.5t-180 -194.5l-151 -133h403v-98h-557z" />
<glyph unicode="&#xb3;" horiz-adv-x="739" d="M70 602l10 107q107 -43 246 -43q86 0 150.5 43.5t64.5 113.5q0 99 -83 125.5t-198 26.5h-57v98h57q101 0 189 30t88 118q0 75 -63 100t-142 25q-110 0 -211 -48l-8 107q94 39 243 39q119 0 208 -54t89 -161q0 -76 -52.5 -128.5t-141.5 -72.5v-4q95 -4 146.5 -63.5 t51.5 -149.5q0 -120 -103 -182t-239 -62q-145 0 -245 35z" />
<glyph unicode="&#xb4;" horiz-adv-x="455" d="M109 1171l190 295h162l-258 -295h-94z" />
<glyph unicode="&#xb5;" d="M162 -430v1474h129v-634q0 -155 60 -239.5t188 -84.5q109 0 179 56t100 142t30 183v577h129v-798q0 -162 8 -246h-125v186h-4q-41 -91 -117 -151t-221 -60q-128 0 -227 60v-465h-129z" />
<glyph unicode="&#xb6;" horiz-adv-x="1229" d="M98 1036q0 196 123.5 295t343.5 99h492v-1651h-129v1540h-275v-1540h-129v876q-120 0 -218 50.5t-153 139t-55 191.5z" />
<glyph unicode="&#xb7;" horiz-adv-x="569" d="M188 637q0 44 31 71t68 27t66.5 -27t29.5 -71t-29 -70t-67 -26t-68.5 25.5t-30.5 70.5z" />
<glyph unicode="&#xb8;" horiz-adv-x="455" d="M14 -334l15 76q29 -20 80 -39.5t102 -19.5q47 0 76.5 19.5t29.5 55.5t-20.5 56t-56.5 20q-49 0 -86 -8l59 174h55l-39 -111q9 1 20.5 2.5t23.5 3t24 1.5q64 0 106.5 -35.5t42.5 -98.5q0 -79 -66.5 -110t-158.5 -31q-79 0 -207 45z" />
<glyph unicode="&#xb9;" horiz-adv-x="739" d="M158 1280l211 164h106v-862h-117v749l-155 -119z" />
<glyph unicode="&#xba;" horiz-adv-x="819" d="M86 1139q0 85 44 156t119 110t161 39t160 -38.5t118.5 -108.5t44.5 -158q0 -89 -44 -158t-118.5 -108t-160.5 -39t-161.5 39t-119 109t-43.5 157zM190 1139q0 -57 31 -104.5t82.5 -75t106.5 -27.5t106 27.5t82 75t31 104.5q0 95 -61.5 151t-157.5 56t-158 -56.5 t-62 -150.5z" />
<glyph unicode="&#xbb;" d="M186 131l273 420l-273 420h121l287 -420l-287 -420h-121zM545 131l272 420l-272 420h121l286 -420l-286 -420h-121z" />
<glyph unicode="&#xbc;" horiz-adv-x="1708" d="M145 1280l211 164h107v-862h-117v749l-156 -119zM266 -45l908 1520h116l-907 -1520h-117zM883 186v101l426 575h139v-577h115v-99h-115v-186h-117v186h-448zM999 285h332v436h-4z" />
<glyph unicode="&#xbd;" horiz-adv-x="1708" d="M121 1280l211 164h106v-862h-116v749l-156 -119zM240 -45l907 1520h117l-908 -1520h-116zM1030 0v84l217 195q215 205 215 339q0 67 -45 106.5t-114 39.5q-110 0 -224 -62l-16 103q117 57 240 57q125 0 200.5 -58t75.5 -179q0 -111 -62.5 -196.5t-181.5 -197.5l-151 -133 h403v-98h-557z" />
<glyph unicode="&#xbe;" horiz-adv-x="1708" d="M109 602l10 107q107 -43 246 -43q86 0 150.5 43.5t64.5 113.5q0 99 -83 125.5t-198 26.5h-57v98h57q101 0 188.5 30t87.5 118q0 74 -62.5 99.5t-141.5 25.5q-110 0 -211 -48l-8 107q94 39 243 39q119 0 208 -54t89 -161q0 -76 -52.5 -128.5t-141.5 -72.5v-4 q95 -4 146.5 -63.5t51.5 -149.5q0 -120 -103 -182t-239 -62q-145 0 -245 35zM424 -45l907 1520h119l-907 -1520h-119zM922 186v101l426 575h139v-577h115v-99h-115v-186h-117v186h-448zM1038 285h332v436h-4z" />
<glyph unicode="&#xbf;" horiz-adv-x="1024" d="M156 -43q0 113 43 187.5t132.5 172t132 170t42.5 181.5v30h129v-26q0 -125 -43 -206t-126.5 -170t-126 -159.5t-42.5 -179.5q0 -74 33.5 -129.5t92 -85t132.5 -29.5q54 0 101 8t98.5 23t87.5 27l6 -129q-172 -52 -299 -52q-110 0 -199 40t-141.5 122.5t-52.5 204.5z M485 872v172h166v-172h-166z" />
<glyph unicode="&#xc0;" horiz-adv-x="1366" d="M27 0l585 1430h160l567 -1430h-147l-154 383h-721l-153 -383h-137zM371 506h620l-309 788zM522 1776h146l170 -250h-84z" />
<glyph unicode="&#xc1;" horiz-adv-x="1366" d="M27 0l585 1430h160l567 -1430h-147l-154 383h-721l-153 -383h-137zM371 506h620l-309 788zM582 1532l170 250h145l-231 -250h-84z" />
<glyph unicode="&#xc2;" horiz-adv-x="1366" d="M27 0l585 1430h160l567 -1430h-147l-154 383h-721l-153 -383h-137zM371 506h620l-309 788zM446 1499l172 244h150l170 -244h-84l-160 150l-164 -150h-84z" />
<glyph unicode="&#xc3;" horiz-adv-x="1366" d="M27 0l585 1430h160l567 -1430h-147l-154 383h-721l-153 -383h-137zM371 506h620l-309 788zM453 1522q14 68 51 116t96 48q37 0 111 -21q20 -6 38 -12l25.5 -8.5t16.5 -2.5q29 0 54 17t32 43h67q-12 -88 -58 -124t-93 -36q-42 0 -111 23q-66 20 -84 20q-33 0 -49.5 -14.5 t-30.5 -48.5h-65z" />
<glyph unicode="&#xc4;" horiz-adv-x="1366" d="M27 0l585 1430h160l567 -1430h-147l-154 383h-721l-153 -383h-137zM371 506h620l-309 788zM496 1524v153h137v-153h-137zM762 1524v153h137v-153h-137z" />
<glyph unicode="&#xc5;" horiz-adv-x="1366" d="M27 0l585 1430h160l567 -1430h-147l-154 383h-721l-153 -383h-137zM371 506h620l-309 788zM528 1683q0 74 50 123t124 49q49 0 89 -22.5t63 -61.5t23 -88q0 -48 -23 -87t-63 -62t-89 -23q-73 0 -123.5 49.5t-50.5 122.5zM594 1683q0 -45 32.5 -75.5t75.5 -30.5 q46 0 77.5 30.5t31.5 75.5t-32 76t-77 31q-42 0 -75 -31t-33 -76z" />
<glyph unicode="&#xc6;" horiz-adv-x="1821" d="M0 0l893 1430h780v-123h-555v-510h527v-123h-527v-551h580v-123h-719v383h-586l-237 -383h-156zM469 506h508v813h-4z" />
<glyph unicode="&#xc7;" horiz-adv-x="1366" d="M117 715q0 160 50.5 297.5t144 235.5t228.5 152t298 54q85 0 182 -13t145 -40l-8 -131q-62 33 -145.5 47t-173.5 14q-181 0 -312 -78.5t-199.5 -219.5t-68.5 -318q0 -182 67 -321.5t198 -217.5t315 -78q215 0 319 62l8 -123q-54 -32 -150.5 -47t-176.5 -15 q-164 0 -300 52.5t-229 151t-142.5 235.5t-49.5 301zM412 -305l12 67q21 -16 69.5 -34.5t92.5 -18.5q94 0 94 66q0 31 -18 48t-50 17q-49 0 -73 -4l53 160h49l-35 -98q14 1 26 1.5t32 0.5q58 0 95.5 -31t37.5 -86q0 -127 -201 -127q-32 0 -69 7.5t-67 16.5t-48 15z" />
<glyph unicode="&#xc8;" horiz-adv-x="1024" d="M176 0v1430h701v-123h-560v-510h531v-123h-531v-551h584v-123h-725zM338 1765h145l170 -249h-84z" />
<glyph unicode="&#xc9;" horiz-adv-x="1024" d="M176 0v1430h701v-123h-560v-510h531v-123h-531v-551h584v-123h-725zM428 1542l170 250h145l-231 -250h-84z" />
<glyph unicode="&#xca;" horiz-adv-x="1024" d="M176 0v1430h701v-123h-560v-510h531v-123h-531v-551h584v-123h-725zM279 1522l172 243h149l170 -243h-84l-160 149l-164 -149h-83z" />
<glyph unicode="&#xcb;" horiz-adv-x="1024" d="M176 0v1430h701v-123h-560v-510h531v-123h-531v-551h584v-123h-725zM319 1522v153h138v-153h-138zM586 1522v153h137v-153h-137z" />
<glyph unicode="&#xcc;" horiz-adv-x="455" d="M37 1806h145l170 -250h-84zM158 0v1430h141v-1430h-141z" />
<glyph unicode="&#xcd;" horiz-adv-x="455" d="M106 1542l170 250h146l-232 -250h-84zM158 0v1430h141v-1430h-141z" />
<glyph unicode="&#xce;" horiz-adv-x="455" d="M-27 1532l172 244h150l170 -244h-84l-160 149l-164 -149h-84zM158 0v1430h141v-1430h-141z" />
<glyph unicode="&#xcf;" horiz-adv-x="455" d="M35 1532v154h137v-154h-137zM158 0v1430h141v-1430h-141zM301 1532v154h137v-154h-137z" />
<glyph unicode="&#xd0;" horiz-adv-x="1366" d="M23 674v123h141v633h242q827 0 827 -713q0 -191 -59.5 -327t-169.5 -223t-260 -127t-330 -40h-250v674h-141zM305 123h117q670 0 670 602q0 170 -48.5 283t-138.5 178.5t-216 93t-290 27.5h-94v-510h436v-123h-436v-551z" />
<glyph unicode="&#xd1;" horiz-adv-x="1366" d="M158 0v1430h178l727 -1258h4v1258h141v-1430h-190l-715 1233h-4v-1233h-141zM461 1522q14 68 51 116t96 48q37 0 111 -21q23 -7 39 -12.5t24 -8t17 -2.5q29 0 54 17t32 43h67q-12 -88 -58 -124t-93 -36q-42 0 -111 23q-66 20 -84 20q-33 0 -49.5 -14.5t-30.5 -48.5h-65z " />
<glyph unicode="&#xd2;" horiz-adv-x="1479" d="M111 715q0 200 69.5 368.5t211.5 269.5t347 101t347.5 -101t212 -269.5t69.5 -368.5q-2 -165 -42.5 -301t-119.5 -234t-197 -151.5t-270 -53.5q-151 0 -269 53.5t-197 152t-119.5 234t-42.5 300.5zM252 715q0 -156 54 -299t164 -230.5t269 -87.5t270 88t164.5 230.5 t53.5 298.5t-53.5 298t-164.5 230t-270 88t-269 -87.5t-164 -229.5t-54 -299zM580 1800h145l170 -250h-84z" />
<glyph unicode="&#xd3;" horiz-adv-x="1479" d="M111 715q0 200 69.5 368.5t211.5 269.5t347 101t347.5 -101t212 -269.5t69.5 -368.5q-2 -165 -42.5 -301t-119.5 -234t-197 -151.5t-270 -53.5q-151 0 -269 53.5t-197 152t-119.5 234t-42.5 300.5zM252 715q0 -156 54 -299t164 -230.5t269 -87.5t270 88t164.5 230.5 t53.5 298.5t-53.5 298t-164.5 230t-270 88t-269 -87.5t-164 -229.5t-54 -299zM649 1546l170 250h146l-232 -250h-84z" />
<glyph unicode="&#xd4;" horiz-adv-x="1479" d="M111 715q0 200 69.5 368.5t211.5 269.5t347 101t347.5 -101t212 -269.5t69.5 -368.5q-2 -165 -42.5 -301t-119.5 -234t-197 -151.5t-270 -53.5q-151 0 -269 53.5t-197 152t-119.5 234t-42.5 300.5zM252 715q0 -156 54 -299t164 -230.5t269 -87.5t270 88t164.5 230.5 t53.5 298.5t-53.5 298t-164.5 230t-270 88t-269 -87.5t-164 -229.5t-54 -299zM504 1516l172 243h149l170 -243h-84l-159 149l-164 -149h-84z" />
<glyph unicode="&#xd5;" horiz-adv-x="1479" d="M111 715q0 200 69.5 368.5t211.5 269.5t347 101t347.5 -101t212 -269.5t69.5 -368.5q-2 -165 -42.5 -301t-119.5 -234t-197 -151.5t-270 -53.5q-151 0 -269 53.5t-197 152t-119.5 234t-42.5 300.5zM252 715q0 -156 54 -299t164 -230.5t269 -87.5t270 88t164.5 230.5 t53.5 298.5t-53.5 298t-164.5 230t-270 88t-269 -87.5t-164 -229.5t-54 -299zM489 1536q16 70 52 117t96 47q44 0 111 -21q28 -8 49.5 -15t29.5 -7q30 0 54.5 15.5t31.5 43.5h68q-12 -87 -58.5 -123.5t-93.5 -36.5q-34 0 -110 23q-66 20 -84 20q-32 0 -50 -14.5t-30 -48.5 h-66z" />
<glyph unicode="&#xd6;" horiz-adv-x="1479" d="M111 715q0 200 69.5 368.5t211.5 269.5t347 101t347.5 -101t212 -269.5t69.5 -368.5q-2 -165 -42.5 -301t-119.5 -234t-197 -151.5t-270 -53.5q-151 0 -269 53.5t-197 152t-119.5 234t-42.5 300.5zM252 715q0 -156 54 -299t164 -230.5t269 -87.5t270 88t164.5 230.5 t53.5 298.5t-53.5 298t-164.5 230t-270 88t-269 -87.5t-164 -229.5t-54 -299zM545 1546v154h137v-154h-137zM811 1546v154h137v-154h-137z" />
<glyph unicode="&#xd7;" horiz-adv-x="1229" d="M145 156l371 370l-371 369l101 100l370 -370l367 370l102 -100l-368 -369l368 -370l-102 -103l-367 373l-370 -373z" />
<glyph unicode="&#xd8;" horiz-adv-x="1479" d="M59 23l181 206q-40 59 -69.5 136.5t-43.5 163t-16 186.5q0 200 69.5 368.5t211.5 269.5t347 101q263 0 424 -166l176 201l80 -68l-186 -215q44 -61 75 -141.5t45.5 -170.5t14.5 -179q-2 -165 -42.5 -301t-119.5 -234t-197 -151.5t-270 -53.5q-275 0 -434 170l-166 -190z M252 715q0 -102 22.5 -195t65.5 -174l731 836q-62 71 -144.5 110t-187.5 39q-159 0 -269 -87.5t-164 -229.5t-54 -299zM401 254q61 -73 147.5 -114.5t190.5 -41.5q159 0 270 88t164.5 230.5t53.5 298.5q0 45 -6 101.5t-16 100t-28 90.5t-42 87z" />
<glyph unicode="&#xd9;" horiz-adv-x="1366" d="M166 500v930h141v-930q0 -118 43 -209t128.5 -142t205.5 -51t205.5 51t128.5 142t43 209v930h141v-930q0 -195 -80 -312.5t-197.5 -165t-240.5 -47.5t-240.5 47.5t-197.5 165t-80 312.5zM483 1786h146l170 -250h-84z" />
<glyph unicode="&#xda;" horiz-adv-x="1366" d="M166 500v930h141v-930q0 -118 43 -209t128.5 -142t205.5 -51t205.5 51t128.5 142t43 209v930h141v-930q0 -195 -80 -312.5t-197.5 -165t-240.5 -47.5t-240.5 47.5t-197.5 165t-80 312.5zM584 1542l170 250h145l-231 -250h-84z" />
<glyph unicode="&#xdb;" horiz-adv-x="1366" d="M166 500v930h141v-930q0 -118 43 -209t128.5 -142t205.5 -51t205.5 51t128.5 142t43 209v930h141v-930q0 -195 -80 -312.5t-197.5 -165t-240.5 -47.5t-240.5 47.5t-197.5 165t-80 312.5zM455 1544l172 244h149l170 -244h-84l-160 150l-163 -150h-84z" />
<glyph unicode="&#xdc;" horiz-adv-x="1366" d="M166 500v930h141v-930q0 -118 43 -209t128.5 -142t205.5 -51t205.5 51t128.5 142t43 209v930h141v-930q0 -195 -80 -312.5t-197.5 -165t-240.5 -47.5t-240.5 47.5t-197.5 165t-80 312.5zM485 1544v154h138v-154h-138zM752 1544v154h137v-154h-137z" />
<glyph unicode="&#xdd;" horiz-adv-x="1251" d="M25 1430h163l437 -699l448 699h154l-531 -824v-606h-141v606zM575 1532l170 250h146l-232 -250h-84z" />
<glyph unicode="&#xde;" horiz-adv-x="1024" d="M176 0v1430h141v-267h211q135 0 235 -45.5t154 -136.5t54 -223q0 -129 -59.5 -220.5t-162.5 -138.5t-235 -47h-197v-352h-141zM317 475h99q90 0 160.5 8.5t128.5 37.5t91 86t33 151q0 136 -73 209t-209 73h-230v-565z" />
<glyph unicode="&#xdf;" d="M162 0v1110q0 101 25.5 183.5t76.5 142.5t128 92.5t179 32.5q115 0 203 -46t136 -133t48 -202q0 -139 -72.5 -233.5t-201.5 -123.5v-4q172 -13 262 -113t90 -266q0 -130 -53.5 -234t-154.5 -162t-236 -58q-108 0 -174 24l8 121q56 -35 168 -35q93 0 162 43.5t104 121 t35 177.5q0 116 -47.5 185.5t-133.5 99t-210 29.5h-21v110h37q84 0 152.5 39t106.5 111t38 164q0 120 -66 197t-180 77q-126 0 -203 -86t-77 -299v-1065h-129z" />
<glyph unicode="&#xe0;" horiz-adv-x="1024" d="M82 270q0 126 59 201t153 110.5t197 45.5t234 10h25v53q0 137 -54.5 202.5t-183.5 65.5q-174 0 -307 -86v125q60 30 149 51t158 21q129 0 210 -40.5t119 -125.5t38 -223v-461q0 -79 2.5 -130.5t7.5 -88.5h-127v168h-4q-27 -60 -81.5 -104.5t-119 -66.5t-131.5 -22 q-136 0 -212.5 50t-104 116.5t-27.5 128.5zM223 274q0 -96 60.5 -142t156.5 -46q139 0 207 64.5t85.5 145t17.5 167.5v63h-37q-220 0 -355 -49t-135 -203zM346 1425h146l170 -249h-84z" />
<glyph unicode="&#xe1;" horiz-adv-x="1024" d="M82 270q0 126 59 201t153 110.5t197 45.5t234 10h25v53q0 137 -54.5 202.5t-183.5 65.5q-174 0 -307 -86v125q60 30 149 51t158 21q129 0 210 -40.5t119 -125.5t38 -223v-461q0 -79 2.5 -130.5t7.5 -88.5h-127v168h-4q-27 -60 -81.5 -104.5t-119 -66.5t-131.5 -22 q-136 0 -212.5 50t-104 116.5t-27.5 128.5zM223 274q0 -96 60.5 -142t156.5 -46q139 0 207 64.5t85.5 145t17.5 167.5v63h-37q-220 0 -355 -49t-135 -203zM416 1171l170 250h145l-231 -250h-84z" />
<glyph unicode="&#xe2;" horiz-adv-x="1024" d="M82 270q0 126 59 201t153 110.5t197 45.5t234 10h25v53q0 137 -54.5 202.5t-183.5 65.5q-174 0 -307 -86v125q60 30 149 51t158 21q129 0 210 -40.5t119 -125.5t38 -223v-461q0 -79 2.5 -130.5t7.5 -88.5h-127v168h-4q-27 -60 -81.5 -104.5t-119 -66.5t-131.5 -22 q-136 0 -212.5 50t-104 116.5t-27.5 128.5zM223 274q0 -96 60.5 -142t156.5 -46q139 0 207 64.5t85.5 145t17.5 167.5v63h-37q-220 0 -355 -49t-135 -203zM248 1151l172 244h149l170 -244h-84l-159 149l-164 -149h-84z" />
<glyph unicode="&#xe3;" horiz-adv-x="1024" d="M82 270q0 126 59 201t153 110.5t197 45.5t234 10h25v53q0 137 -54.5 202.5t-183.5 65.5q-174 0 -307 -86v125q60 30 149 51t158 21q129 0 210 -40.5t119 -125.5t38 -223v-461q0 -79 2.5 -130.5t7.5 -88.5h-127v168h-4q-27 -60 -81.5 -104.5t-119 -66.5t-131.5 -22 q-136 0 -212.5 50t-104 116.5t-27.5 128.5zM223 274q0 -96 60.5 -142t156.5 -46q139 0 207 64.5t85.5 145t17.5 167.5v63h-37q-220 0 -355 -49t-135 -203zM297 1141q14 68 50.5 116t96.5 48q37 0 111 -21q27 -7 49.5 -14.5t30.5 -7.5q30 0 54.5 15.5t31.5 43.5h67 q-12 -88 -58 -124t-93 -36q-35 0 -111 23q-64 20 -84 20q-33 0 -49.5 -14.5t-30.5 -48.5h-65z" />
<glyph unicode="&#xe4;" horiz-adv-x="1024" d="M82 270q0 126 59 201t153 110.5t197 45.5t234 10h25v53q0 137 -54.5 202.5t-183.5 65.5q-174 0 -307 -86v125q60 30 149 51t158 21q129 0 210 -40.5t119 -125.5t38 -223v-461q0 -79 2.5 -130.5t7.5 -88.5h-127v168h-4q-27 -60 -81.5 -104.5t-119 -66.5t-131.5 -22 q-136 0 -212.5 50t-104 116.5t-27.5 128.5zM223 274q0 -96 60.5 -142t156.5 -46q139 0 207 64.5t85.5 145t17.5 167.5v63h-37q-220 0 -355 -49t-135 -203zM330 1171v154h137v-154h-137zM596 1171v154h137v-154h-137z" />
<glyph unicode="&#xe5;" horiz-adv-x="1024" d="M82 270q0 126 59 201t153 110.5t197 45.5t234 10h25v53q0 137 -54.5 202.5t-183.5 65.5q-174 0 -307 -86v125q60 30 149 51t158 21q129 0 210 -40.5t119 -125.5t38 -223v-461q0 -79 2.5 -130.5t7.5 -88.5h-127v168h-4q-27 -60 -81.5 -104.5t-119 -66.5t-131.5 -22 q-136 0 -212.5 50t-104 116.5t-27.5 128.5zM223 274q0 -96 60.5 -142t156.5 -46q139 0 207 64.5t85.5 145t17.5 167.5v63h-37q-220 0 -355 -49t-135 -203zM360 1315q0 72 50 122t125 50q50 0 89 -23t62 -61.5t23 -87.5q0 -48 -23 -87t-62 -62t-89 -23q-74 0 -124.5 49.5 t-50.5 122.5zM426 1315q0 -46 32.5 -76.5t76.5 -30.5q47 0 77.5 30.5t30.5 76.5q0 44 -31 75t-77 31q-43 0 -76 -31t-33 -75z" />
<glyph unicode="&#xe6;" horiz-adv-x="1706" d="M94 254q0 117 56.5 188t146 104.5t176 41.5t199.5 8h90v55q0 148 -51 227.5t-185 79.5q-176 0 -309 -86v125q60 30 149 51t158 21q124 0 205.5 -41.5t128.5 -146.5q57 86 147.5 137t190.5 51q143 0 235.5 -69t136.5 -186t44 -263v-66h-709v-47q0 -159 83.5 -255.5 t254.5 -96.5q66 0 156 24t137 54v-131q-69 -28 -148.5 -43t-154.5 -15q-153 0 -254 57.5t-143 153.5q-145 -211 -396 -211q-157 0 -250.5 72t-93.5 207zM236 254q0 -77 65 -122.5t152 -45.5q83 0 143 26.5t96.5 72.5t53 108.5t16.5 136.5v55h-45q-201 0 -341 -40.5 t-140 -190.5zM903 596h567q0 97 -27.5 179t-87.5 132.5t-151 50.5q-87 0 -156 -52t-107 -135.5t-38 -174.5z" />
<glyph unicode="&#xe7;" horiz-adv-x="909" d="M84 522q0 119 37.5 220.5t105.5 174.5t163.5 112.5t209.5 39.5q126 0 252 -41l-10 -123q-120 53 -224 53q-185 0 -289 -121t-104 -315q0 -88 25.5 -166.5t77 -141t122.5 -95.5t154 -33q110 0 236 47l12 -121q-109 -37 -268 -37q-122 0 -216 43t-157.5 120t-95 174.5 t-31.5 209.5zM270 -311l13 67q21 -15 70 -34t91 -19q95 0 95 66q0 31 -18 48t-50 17q-49 0 -74 -4l54 160h49l-35 -99q14 1 31 2t26 1q58 0 95.5 -31t37.5 -86q0 -127 -200 -127q-32 0 -68 7t-69 17t-48 15z" />
<glyph unicode="&#xe8;" horiz-adv-x="1024" d="M84 522q0 119 30.5 218t90 174.5t140.5 115t179 39.5q143 0 235.5 -69t136.5 -186t44 -263v-66h-715q0 -112 40 -203t118 -143.5t186 -52.5q68 0 157 24t136 54v-131q-69 -28 -148.5 -43t-154.5 -15q-246 0 -360.5 147.5t-114.5 399.5zM225 596h574q0 97 -27.5 179 t-88 132.5t-151.5 50.5q-90 0 -160 -52.5t-108.5 -137.5t-38.5 -172zM342 1415h145l170 -250h-84z" />
<glyph unicode="&#xe9;" horiz-adv-x="1024" d="M84 522q0 119 30.5 218t90 174.5t140.5 115t179 39.5q143 0 235.5 -69t136.5 -186t44 -263v-66h-715q0 -112 40 -203t118 -143.5t186 -52.5q68 0 157 24t136 54v-131q-69 -28 -148.5 -43t-154.5 -15q-246 0 -360.5 147.5t-114.5 399.5zM225 596h574q0 97 -27.5 179 t-88 132.5t-151.5 50.5q-90 0 -160 -52.5t-108.5 -137.5t-38.5 -172zM401 1182l170 250h146l-232 -250h-84z" />
<glyph unicode="&#xea;" horiz-adv-x="1024" d="M84 522q0 119 30.5 218t90 174.5t140.5 115t179 39.5q143 0 235.5 -69t136.5 -186t44 -263v-66h-715q0 -112 40 -203t118 -143.5t186 -52.5q68 0 157 24t136 54v-131q-69 -28 -148.5 -43t-154.5 -15q-246 0 -360.5 147.5t-114.5 399.5zM225 596h574q0 97 -27.5 179 t-88 132.5t-151.5 50.5q-90 0 -160 -52.5t-108.5 -137.5t-38.5 -172zM266 1149l172 244h150l170 -244h-84l-160 149l-164 -149h-84z" />
<glyph unicode="&#xeb;" horiz-adv-x="1024" d="M84 522q0 119 30.5 218t90 174.5t140.5 115t179 39.5q143 0 235.5 -69t136.5 -186t44 -263v-66h-715q0 -112 40 -203t118 -143.5t186 -52.5q68 0 157 24t136 54v-131q-69 -28 -148.5 -43t-154.5 -15q-246 0 -360.5 147.5t-114.5 399.5zM225 596h574q0 97 -27.5 179 t-88 132.5t-151.5 50.5q-90 0 -160 -52.5t-108.5 -137.5t-38.5 -172zM297 1159v154h137v-154h-137zM563 1159v154h137v-154h-137z" />
<glyph unicode="&#xec;" horiz-adv-x="455" d="M39 1389h145l170 -250h-84zM162 0v1044h129v-1044h-129z" />
<glyph unicode="&#xed;" horiz-adv-x="455" d="M109 1155l170 250h145l-231 -250h-84zM162 0v1044h129v-1044h-129z" />
<glyph unicode="&#xee;" horiz-adv-x="455" d="M-12 1137l172 243h149l170 -243h-84l-159 149l-164 -149h-84zM162 0v1044h129v-1044h-129z" />
<glyph unicode="&#xef;" horiz-adv-x="455" d="M29 1147v153h137v-153h-137zM162 0v1044h129v-1044h-129zM295 1147v153h137v-153h-137z" />
<glyph unicode="&#xf0;" d="M82 522q0 150 53 273.5t163 198.5t271 75q192 0 322 -162h4q-55 236 -240 385l-221 -137l-61 86l186 117q-123 73 -276 104l24 99q71 -10 139 -28.5t127 -44t107 -56.5l219 135l62 -86l-191 -117q74 -62 129 -145.5t90 -178.5t51.5 -204t16.5 -230q0 -152 -29 -268.5 t-90 -197.5t-152.5 -123t-216.5 -42q-121 0 -213.5 44t-153.5 120.5t-90.5 174t-29.5 208.5zM223 522q0 -123 40 -221.5t118 -156.5t188 -58q109 0 188 58t118.5 156.5t39.5 221.5q0 122 -40 221.5t-118.5 157t-187.5 57.5q-110 0 -187.5 -57.5t-118 -156.5t-40.5 -222z" />
<glyph unicode="&#xf1;" d="M154 1044h125v-186h4q44 93 118 152t220 59q184 0 270 -108t86 -293v-668h-129v635q0 155 -60 239t-188 84q-109 0 -179 -55.5t-100 -141.5t-30 -183v-578h-129v799q0 162 -8 245zM332 1157q14 68 50.5 116t96.5 48q44 0 111 -21q29 -8 50 -15t30 -7q29 0 54 16t32 43h67 q-12 -88 -58 -123.5t-93 -35.5q-38 0 -111 22q-69 21 -84 21q-34 0 -49.5 -14t-30.5 -50h-65z" />
<glyph unicode="&#xf2;" d="M82 522q0 150 53 273.5t163 198.5t271 75t271.5 -75.5t163.5 -200t53 -271.5q0 -112 -29 -208.5t-90.5 -174t-154.5 -121t-214 -43.5t-213.5 44t-153.5 120.5t-90.5 174t-29.5 208.5zM223 522q0 -123 40 -221.5t118 -156.5t188 -58q109 0 188 58t118.5 156.5t39.5 221.5 q0 122 -40 221.5t-118.5 157t-187.5 57.5q-110 0 -187.5 -57.5t-118 -156.5t-40.5 -222zM410 1415h145l170 -250h-84z" />
<glyph unicode="&#xf3;" d="M82 522q0 150 53 273.5t163 198.5t271 75t271.5 -75.5t163.5 -200t53 -271.5q0 -112 -29 -208.5t-90.5 -174t-154.5 -121t-214 -43.5t-213.5 44t-153.5 120.5t-90.5 174t-29.5 208.5zM223 522q0 -123 40 -221.5t118 -156.5t188 -58q109 0 188 58t118.5 156.5t39.5 221.5 q0 122 -40 221.5t-118.5 157t-187.5 57.5q-110 0 -187.5 -57.5t-118 -156.5t-40.5 -222zM449 1171l169 250h146l-232 -250h-83z" />
<glyph unicode="&#xf4;" d="M82 522q0 150 53 273.5t163 198.5t271 75t271.5 -75.5t163.5 -200t53 -271.5q0 -112 -29 -208.5t-90.5 -174t-154.5 -121t-214 -43.5t-213.5 44t-153.5 120.5t-90.5 174t-29.5 208.5zM223 522q0 -123 40 -221.5t118 -156.5t188 -58q109 0 188 58t118.5 156.5t39.5 221.5 q0 122 -40 221.5t-118.5 157t-187.5 57.5q-110 0 -187.5 -57.5t-118 -156.5t-40.5 -222zM326 1147l172 244h149l170 -244h-84l-160 149l-163 -149h-84z" />
<glyph unicode="&#xf5;" d="M82 522q0 150 53 273.5t163 198.5t271 75t271.5 -75.5t163.5 -200t53 -271.5q0 -112 -29 -208.5t-90.5 -174t-154.5 -121t-214 -43.5t-213.5 44t-153.5 120.5t-90.5 174t-29.5 208.5zM223 522q0 -123 40 -221.5t118 -156.5t188 -58q109 0 188 58t118.5 156.5t39.5 221.5 q0 122 -40 221.5t-118.5 157t-187.5 57.5q-110 0 -187.5 -57.5t-118 -156.5t-40.5 -222zM330 1161q14 68 50.5 116t96.5 48q41 0 111 -20q73 -23 80 -23q29 0 54 16t32 43h67q-12 -88 -58 -123.5t-93 -35.5q-38 0 -111 22q-69 21 -84 21q-34 0 -49.5 -14t-30.5 -50h-65z" />
<glyph unicode="&#xf6;" d="M82 522q0 150 53 273.5t163 198.5t271 75t271.5 -75.5t163.5 -200t53 -271.5q0 -112 -29 -208.5t-90.5 -174t-154.5 -121t-214 -43.5t-213.5 44t-153.5 120.5t-90.5 174t-29.5 208.5zM223 522q0 -123 40 -221.5t118 -156.5t188 -58q109 0 188 58t118.5 156.5t39.5 221.5 q0 122 -40 221.5t-118.5 157t-187.5 57.5q-110 0 -187.5 -57.5t-118 -156.5t-40.5 -222zM367 1147v153h137v-153h-137zM633 1147v153h137v-153h-137z" />
<glyph unicode="&#xf7;" horiz-adv-x="1229" d="M94 449v141h1039v-141h-1039zM483 117q0 52 39.5 91.5t91.5 39.5q54 0 92.5 -39.5t38.5 -91.5q0 -51 -39 -91t-92 -40q-52 0 -91.5 39.5t-39.5 91.5zM483 922q0 52 39.5 91.5t91.5 39.5q54 0 92.5 -39.5t38.5 -91.5q0 -51 -39 -91t-92 -40q-52 0 -91.5 39.5t-39.5 91.5z " />
<glyph unicode="&#xf8;" d="M39 -23l154 177q-56 74 -83.5 169t-27.5 199q0 150 53 273.5t163 198.5t271 75q202 0 320 -115l139 162l72 -59l-150 -172q107 -140 107 -363q0 -112 -29 -208.5t-90.5 -174t-154.5 -121t-214 -43.5q-190 0 -315 109l-143 -166zM223 522q0 -150 62 -262l520 598 q-94 100 -236 100q-110 0 -187.5 -57.5t-118 -156.5t-40.5 -222zM340 182q90 -96 229 -96q109 0 188 58t118.5 156.5t39.5 221.5q0 152 -57 256z" />
<glyph unicode="&#xf9;" d="M162 377v667h129v-634q0 -155 60 -239.5t188 -84.5q109 0 179 56t100 142t30 183v577h129v-798q0 -162 8 -246h-125v186h-4q-41 -91 -117 -151t-221 -60q-125 0 -204 51.5t-115.5 141.5t-36.5 209zM373 1411h145l170 -250h-84z" />
<glyph unicode="&#xfa;" d="M162 377v667h129v-634q0 -155 60 -239.5t188 -84.5q109 0 179 56t100 142t30 183v577h129v-798q0 -162 8 -246h-125v186h-4q-41 -91 -117 -151t-221 -60q-125 0 -204 51.5t-115.5 141.5t-36.5 209zM463 1147l170 250h145l-231 -250h-84z" />
<glyph unicode="&#xfb;" d="M162 377v667h129v-634q0 -155 60 -239.5t188 -84.5q109 0 179 56t100 142t30 183v577h129v-798q0 -162 8 -246h-125v186h-4q-41 -91 -117 -151t-221 -60q-125 0 -204 51.5t-115.5 141.5t-36.5 209zM322 1147l172 244h149l170 -244h-84l-160 149l-163 -149h-84z" />
<glyph unicode="&#xfc;" d="M162 377v667h129v-634q0 -155 60 -239.5t188 -84.5q109 0 179 56t100 142t30 183v577h129v-798q0 -162 8 -246h-125v186h-4q-41 -91 -117 -151t-221 -60q-125 0 -204 51.5t-115.5 141.5t-36.5 209zM373 1147v153h137v-153h-137zM639 1147v153h137v-153h-137z" />
<glyph unicode="&#xfd;" horiz-adv-x="909" d="M18 1044h142l293 -872l-2 2h4l301 870h135l-418 -1200q-43 -128 -106.5 -207t-161.5 -79q-70 0 -139 16l12 111q45 -17 96 -17q77 0 115 54.5t73 173.5l27 92zM385 1147l170 250h145l-231 -250h-84z" />
<glyph unicode="&#xfe;" d="M150 -430v1966h129v-682h4q31 76 105.5 145.5t219.5 69.5q113 0 195.5 -39.5t134 -112t76 -173.5t24.5 -222q0 -155 -48.5 -280t-145 -196t-236.5 -71q-63 0 -111 13t-88.5 40t-70.5 66t-55 96h-4v-620h-129zM279 522q0 -103 31 -204t101 -166.5t177 -65.5 q114 0 183.5 63t97.5 161.5t28 211.5t-28 211.5t-97.5 161.5t-183.5 63q-107 0 -177 -65.5t-101 -166t-31 -204.5z" />
<glyph unicode="&#xff;" horiz-adv-x="909" d="M18 1044h142l293 -872l-2 2h4l301 870h135l-418 -1200q-43 -128 -106.5 -207t-161.5 -79q-70 0 -139 16l12 111q45 -17 96 -17q77 0 115 54.5t73 173.5l27 92zM248 1155v154h137v-154h-137zM514 1155v154h137v-154h-137z" />
<glyph unicode="&#x152;" horiz-adv-x="1821" d="M111 715q0 188 59 355t187.5 270.5t320.5 103.5q38 0 105 -3.5l134 -7t105 -3.5h651v-123h-555v-510h527v-123h-527v-551h580v-123h-676q-38 0 -105 -3.5l-134 -7t-105 -3.5q-192 0 -320 103t-187.5 270t-59.5 356zM252 715q0 -270 91 -404.5t191.5 -167t182.5 -32.5 q108 0 260 12v1184q-18 1 -110.5 6.5t-149.5 5.5q-82 0 -182.5 -32.5t-191.5 -167t-91 -404.5z" />
<glyph unicode="&#x153;" horiz-adv-x="1821" d="M74 522q0 150 53 273.5t163 198.5t271 75q91 0 166.5 -23.5t133 -73t93.5 -128.5q116 225 375 225q109 0 188.5 -41.5t129.5 -112t74 -163t24 -197.5v-70h-715q0 -112 40 -203t118 -143.5t186 -52.5q66 0 156 24t137 54v-131q-69 -28 -148.5 -43t-154.5 -15 q-289 0 -401 213q-59 -100 -160 -156.5t-242 -56.5q-121 0 -213.5 44t-153.5 120.5t-90.5 174t-29.5 208.5zM215 522q0 -123 40 -221.5t118 -156.5t188 -58q328 0 328 436t-328 436q-110 0 -187.5 -57.5t-118 -156.5t-40.5 -222zM1030 596h574q0 97 -30 179t-90.5 132.5 t-146.5 50.5q-74 0 -130.5 -26t-96.5 -75t-60 -114.5t-20 -146.5z" />
<glyph unicode="&#x178;" horiz-adv-x="1251" d="M25 1430h163l437 -699l448 699h154l-531 -824v-606h-141v606zM442 1518v153h138v-153h-138zM709 1518v153h137v-153h-137z" />
<glyph unicode="&#x2c6;" horiz-adv-x="455" d="M-47 1171l190 295h168l191 -295h-94l-181 209l-180 -209h-94z" />
<glyph unicode="&#x2dc;" horiz-adv-x="455" d="M-55 1219q16 77 58 130.5t108 53.5q50 0 125 -25q19 -6 37 -12t33.5 -10t19.5 -4q35 0 63 18t37 51h76q-13 -98 -65 -139t-105 -41q-50 0 -127 27q-74 24 -96 24q-38 0 -56.5 -16.5t-34.5 -56.5h-73z" />
<glyph unicode="&#x2000;" horiz-adv-x="927" />
<glyph unicode="&#x2001;" horiz-adv-x="1855" />
<glyph unicode="&#x2002;" horiz-adv-x="927" />
<glyph unicode="&#x2003;" horiz-adv-x="1855" />
<glyph unicode="&#x2004;" horiz-adv-x="618" />
<glyph unicode="&#x2005;" horiz-adv-x="463" />
<glyph unicode="&#x2006;" horiz-adv-x="309" />
<glyph unicode="&#x2007;" horiz-adv-x="309" />
<glyph unicode="&#x2008;" horiz-adv-x="231" />
<glyph unicode="&#x2009;" horiz-adv-x="371" />
<glyph unicode="&#x200a;" horiz-adv-x="103" />
<glyph unicode="&#x2010;" horiz-adv-x="682" d="M84 481v142h514v-142h-514z" />
<glyph unicode="&#x2011;" horiz-adv-x="682" d="M84 481v142h514v-142h-514z" />
<glyph unicode="&#x2012;" horiz-adv-x="682" d="M84 481v142h514v-142h-514z" />
<glyph unicode="&#x2013;" horiz-adv-x="1024" d="M0 496v110h1024v-110h-1024z" />
<glyph unicode="&#x2014;" horiz-adv-x="2048" d="M0 496v110h2048v-110h-2048z" />
<glyph unicode="&#x2018;" horiz-adv-x="569" d="M147 983l158 447h117l-121 -447h-154z" />
<glyph unicode="&#x2019;" horiz-adv-x="569" d="M147 983l121 447h154l-158 -447h-117z" />
<glyph unicode="&#x201a;" horiz-adv-x="569" d="M147 -274l121 446h154l-158 -446h-117z" />
<glyph unicode="&#x201c;" d="M252 983l158 447h116l-120 -447h-154zM612 983l158 447h117l-121 -447h-154z" />
<glyph unicode="&#x201d;" d="M252 983l121 447h153l-157 -447h-117zM612 983l121 447h154l-158 -447h-117z" />
<glyph unicode="&#x201e;" d="M252 -274l121 446h153l-155 -446h-119zM612 -274l121 446h154l-158 -446h-117z" />
<glyph unicode="&#x2022;" horiz-adv-x="1024" d="M156 715q0 94 48 178t129.5 132t178.5 48q96 0 178.5 -48t131 -131.5t48.5 -178.5q0 -97 -48.5 -179.5t-131.5 -130t-178 -47.5q-96 0 -178 47.5t-130 130.5t-48 179z" />
<glyph unicode="&#x2026;" horiz-adv-x="2048" d="M260 0v172h166v-172h-166zM942 0v172h166v-172h-166zM1624 0v172h166v-172h-166z" />
<glyph unicode="&#x202f;" horiz-adv-x="371" />
<glyph unicode="&#x2039;" horiz-adv-x="569" d="M80 551l287 420h120l-272 -420l272 -420h-120z" />
<glyph unicode="&#x203a;" horiz-adv-x="569" d="M82 131l272 420l-272 420h121l286 -420l-286 -420h-121z" />
<glyph unicode="&#x205f;" horiz-adv-x="463" />
<glyph unicode="&#x2122;" horiz-adv-x="2028" d="M131 1331v99h666v-99h-269v-749h-129v749h-268zM979 582v848h209l250 -654l250 654h208v-848h-129v737h-4l-282 -737h-88l-281 737h-4v-737h-129z" />
<glyph unicode="&#x25fc;" horiz-adv-x="1045" d="M0 0v1045h1045v-1045h-1045z" />
<glyph unicode="&#xfb01;" d="M39 934v110h211v76q0 140 15 230t75.5 150.5t185.5 60.5q85 0 121 -21l-8 -113q-41 23 -102 23q-97 0 -127.5 -67t-30.5 -179v-69v-91h235v-110h-235v-934h-129v934h-211zM825 0v1044h129v-1044h-129zM825 1323v172h129v-172h-129z" />
</font>
</defs>
</svg>
